{"accessors" : [{"bufferView" : 0, "byteOffset" : 0, "componentType" : 5123, "count" : 924, "type" : "SCALAR", "max" : [698], "min" : [0]}, {"bufferView" : 1, "byteOffset" : 0, "componentType" : 5126, "count" : 699, "type" : "VEC3", "max" : [55.079498291015625, -34.684898376464844, 45.29790115356445], "min" : [20.865400314331055, -48.34980010986328, 30.269399642944336], "name" : "POSITION"}, {"bufferView" : 1, "byteOffset" : 12, "componentType" : 5126, "count" : 699, "type" : "VEC3", "max" : [0.8017153143882751, -0.21439695358276367, 0.7103502750396729], "min" : [-0.5518395304679871, -0.9994791746139526, -0.9675393104553223], "name" : "NORMAL"}, {"bufferView" : 1, "byteOffset" : 24, "componentType" : 5126, "count" : 699, "type" : "VEC2", "max" : [0.9789350032806396, 0.48507899045944214], "min" : [0.04068699851632118, 0.023406000807881355], "name" : "TEXCOORD_0"}, {"bufferView" : 0, "byteOffset" : 1848, "componentType" : 5123, "count" : 924, "type" : "SCALAR", "max" : [698], "min" : [0]}, {"bufferView" : 2, "byteOffset" : 0, "componentType" : 5126, "count" : 699, "type" : "VEC3", "max" : [-21.76289939880371, -34.16130065917969, 44.354698181152344], "min" : [-54.03919982910156, -46.92919921875, 30.19700050354004], "name" : "POSITION"}, {"bufferView" : 2, "byteOffset" : 12, "componentType" : 5126, "count" : 699, "type" : "VEC3", "max" : [0.5732665061950684, -0.2246479094028473, 0.7085011601448059], "min" : [-0.782785177230835, -0.9995720386505127, -0.964996874332428], "name" : "NORMAL"}, {"bufferView" : 2, "byteOffset" : 24, "componentType" : 5126, "count" : 699, "type" : "VEC2", "max" : [0.980351984500885, 0.9876310229301453], "min" : [0.042103998363018036, 0.5259569883346558], "name" : "TEXCOORD_0"}, {"bufferView" : 0, "byteOffset" : 3696, "componentType" : 5123, "count" : 34476, "type" : "SCALAR", "max" : [25961], "min" : [0]}, {"bufferView" : 3, "byteOffset" : 0, "componentType" : 5126, "count" : 25962, "type" : "VEC3", "max" : [97.19490051269531, 149.06199645996094, 124.28399658203125], "min" : [-97.881103515625, -95.36209869384766, -156.29100036621094], "name" : "POSITION"}, {"bufferView" : 3, "byteOffset" : 12, "componentType" : 5126, "count" : 25962, "type" : "VEC3", "max" : [0.9998297691345215, 0.9999765157699585, 0.9994918704032898], "min" : [-0.9999532699584961, -0.9991510510444641, -0.9947197437286377], "name" : "NORMAL"}, {"bufferView" : 3, "byteOffset" : 24, "componentType" : 5126, "count" : 25962, "type" : "VEC2", "max" : [1, 1], "min" : [0, -0.0027829399332404137], "name" : "TEXCOORD_0"}, {"bufferView" : 0, "byteOffset" : 72648, "componentType" : 5123, "count" : 198, "type" : "SCALAR", "max" : [161], "min" : [0]}, {"bufferView" : 4, "byteOffset" : 0, "componentType" : 5126, "count" : 162, "type" : "VEC3", "max" : [34.255001068115234, 20.23200035095215, -0.40681999921798706], "min" : [-34.78820037841797, -83.089599609375, -81.14769744873047], "name" : "POSITION"}, {"bufferView" : 4, "byteOffset" : 12, "componentType" : 5126, "count" : 162, "type" : "VEC3", "max" : [0.9990472793579102, 0.9693435430526733, 0.7406620383262634], "min" : [-0.9993776679039001, -0.8637927174568176, -0.9813115000724792], "name" : "NORMAL"}, {"bufferView" : 4, "byteOffset" : 24, "componentType" : 5126, "count" : 162, "type" : "VEC2", "max" : [1.0002299547195435, 0.9739649891853333], "min" : [0.011714000254869461, 0.015065999701619148], "name" : "TEXCOORD_0"}, {"bufferView" : 0, "byteOffset" : 73044, "componentType" : 5123, "count" : 60, "type" : "SCALAR", "max" : [48], "min" : [0]}, {"bufferView" : 5, "byteOffset" : 0, "componentType" : 5126, "count" : 49, "type" : "VEC3", "max" : [23.594499588012695, -29.776100158691406, -30.7814998626709], "min" : [-24.158300399780273, -80.66560363769531, -53.2151985168457], "name" : "POSITION"}, {"bufferView" : 5, "byteOffset" : 12, "componentType" : 5126, "count" : 49, "type" : "VEC3", "max" : [0.997236430644989, -0.07053781300783157, 0.18494181334972382], "min" : [-0.995505154132843, -0.9825533628463745, -0.023503905162215233], "name" : "NORMAL"}, {"bufferView" : 5, "byteOffset" : 24, "componentType" : 5126, "count" : 49, "type" : "VEC2", "max" : [0.9994440078735352, 0.9602349996566772], "min" : [0.0011940000113099813, 0.055038001388311386], "name" : "TEXCOORD_0"}, {"bufferView" : 0, "byteOffset" : 73164, "componentType" : 5123, "count" : 60, "type" : "SCALAR", "max" : [48], "min" : [0]}, {"bufferView" : 6, "byteOffset" : 0, "componentType" : 5126, "count" : 49, "type" : "VEC3", "max" : [29.053800582885742, -19.91010093688965, -12.861499786376953], "min" : [-29.58919906616211, -79.68329620361328, -45.02259826660156], "name" : "POSITION"}, {"bufferView" : 6, "byteOffset" : 12, "componentType" : 5126, "count" : 49, "type" : "VEC3", "max" : [0.9922451376914978, -0.12423352152109146, 0.3549145758152008], "min" : [-0.99021977186203, -0.9346241354942322, -0.0049407402984797955], "name" : "NORMAL"}, {"bufferView" : 6, "byteOffset" : 24, "componentType" : 5126, "count" : 49, "type" : "VEC2", "max" : [1.0052599906921387, 0.8796349763870239], "min" : [0.001091000041924417, 0.04158100113272667], "name" : "TEXCOORD_0"}, {"bufferView" : 0, "byteOffset" : 73284, "componentType" : 5123, "count" : 198, "type" : "SCALAR", "max" : [158], "min" : [0]}, {"bufferView" : 7, "byteOffset" : 0, "componentType" : 5126, "count" : 159, "type" : "VEC3", "max" : [21.640100479125977, -5.228610038757324, -34.9552001953125], "min" : [-22.097400665283203, -70.84210205078125, -57.5192985534668], "name" : "POSITION"}, {"bufferView" : 7, "byteOffset" : 12, "componentType" : 5126, "count" : 159, "type" : "VEC3", "max" : [0.9810484647750854, 0.9784439206123352, 0.9967500567436218], "min" : [-0.9770135283470154, -0.9333481192588806, -0.9793137907981873], "name" : "NORMAL"}, {"bufferView" : 7, "byteOffset" : 24, "componentType" : 5126, "count" : 159, "type" : "VEC2", "max" : [1, 1.001170039176941], "min" : [0, 0], "name" : "TEXCOORD_0"}], "asset" : {"generator" : "Aspose.3D 22.7", "version" : "2.0"}, "buffers" : [{"uri" : "data:application/octet-stream;base64,", "byteLength" : 1252592}], "bufferViews" : [{"buffer" : 0, "byteOffset" : 0, "byteLength" : 73680, "target" : 34963}, {"buffer" : 0, "byteOffset" : 73684, "byteLength" : 29568, "byteStride" : 32, "target" : 34962}, {"buffer" : 0, "byteOffset" : 103256, "byteLength" : 29568, "byteStride" : 32, "target" : 34962}, {"buffer" : 0, "byteOffset" : 132828, "byteLength" : 1103232, "byteStride" : 32, "target" : 34962}, {"buffer" : 0, "byteOffset" : 1236064, "byteLength" : 6336, "byteStride" : 32, "target" : 34962}, {"buffer" : 0, "byteOffset" : 1242404, "byteLength" : 1920, "byteStride" : 32, "target" : 34962}, {"buffer" : 0, "byteOffset" : 1244328, "byteLength" : 1920, "byteStride" : 32, "target" : 34962}, {"buffer" : 0, "byteOffset" : 1246252, "byteLength" : 6336, "byteStride" : 32, "target" : 34962}], "images" : [{"uri" : "data:image/jpeg;base64,"}, {"uri" : "data:image/jpeg;base64,"}, {"uri" : "data:image/jpeg;base64,"}, {"uri" : "data:image/jpeg;base64,"}, {"uri" : "data:image/jpeg;base64,"}, {"uri" : "data:image/jpeg;base64,"}, {"uri" : "data:image/jpeg;base64,"}], "materials" : [{"name" : "Texture0", "pbrMetallicRoughness" : {"baseColorFactor" : [1, 1, 1, 1], "baseColorTexture" : {"index" : 0, "texCoord" : 0}, "metallicFactor" : 0, "roughnessFactor" : 1}, "emissiveFactor" : [0, 0, 0], "alphaMode" : "OPAQUE", "doubleSided" : true}, {"name" : "Texture1", "pbrMetallicRoughness" : {"baseColorFactor" : [1, 1, 1, 1], "baseColorTexture" : {"index" : 1, "texCoord" : 0}, "metallicFactor" : 0, "roughnessFactor" : 1}, "emissiveFactor" : [0, 0, 0], "alphaMode" : "OPAQUE", "doubleSided" : true}, {"name" : "Texture2", "pbrMetallicRoughness" : {"baseColorFactor" : [1, 1, 1, 1], "baseColorTexture" : {"index" : 2, "texCoord" : 0}, "metallicFactor" : 0, "roughnessFactor" : 1}, "emissiveFactor" : [0, 0, 0], "alphaMode" : "OPAQUE", "doubleSided" : true}, {"name" : "Texture3", "pbrMetallicRoughness" : {"baseColorFactor" : [1, 1, 1, 1], "baseColorTexture" : {"index" : 3, "texCoord" : 0}, "metallicFactor" : 0, "roughnessFactor" : 1}, "emissiveFactor" : [0, 0, 0], "alphaMode" : "OPAQUE", "doubleSided" : true}, {"name" : "Texture4", "pbrMetallicRoughness" : {"baseColorFactor" : [1, 1, 1, 1], "baseColorTexture" : {"index" : 4, "texCoord" : 0}, "metallicFactor" : 0, "roughnessFactor" : 1}, "emissiveFactor" : [0, 0, 0], "alphaMode" : "OPAQUE", "doubleSided" : true}, {"name" : "Texture5", "pbrMetallicRoughness" : {"baseColorFactor" : [1, 1, 1, 1], "baseColorTexture" : {"index" : 5, "texCoord" : 0}, "metallicFactor" : 0, "roughnessFactor" : 1}, "emissiveFactor" : [0, 0, 0], "alphaMode" : "OPAQUE", "doubleSided" : true}, {"name" : "Texture6", "pbrMetallicRoughness" : {"baseColorFactor" : [1, 1, 1, 1], "baseColorTexture" : {"index" : 6, "texCoord" : 0}, "metallicFactor" : 0, "roughnessFactor" : 0.06878810975609756}, "emissiveFactor" : [0, 0, 0], "alphaMode" : "OPAQUE", "doubleSided" : true}], "meshes" : [{"primitives" : [{"attributes" : {"POSITION" : 1, "NORMAL" : 2, "TEXCOORD_0" : 3}, "indices" : 0, "material" : 0, "mode" : 4}]}, {"primitives" : [{"attributes" : {"POSITION" : 5, "NORMAL" : 6, "TEXCOORD_0" : 7}, "indices" : 4, "material" : 1, "mode" : 4}]}, {"primitives" : [{"attributes" : {"POSITION" : 9, "NORMAL" : 10, "TEXCOORD_0" : 11}, "indices" : 8, "material" : 2, "mode" : 4}]}, {"primitives" : [{"attributes" : {"POSITION" : 13, "NORMAL" : 14, "TEXCOORD_0" : 15}, "indices" : 12, "material" : 3, "mode" : 4}]}, {"primitives" : [{"attributes" : {"POSITION" : 17, "NORMAL" : 18, "TEXCOORD_0" : 19}, "indices" : 16, "material" : 4, "mode" : 4}]}, {"primitives" : [{"attributes" : {"POSITION" : 21, "NORMAL" : 22, "TEXCOORD_0" : 23}, "indices" : 20, "material" : 5, "mode" : 4}]}, {"primitives" : [{"attributes" : {"POSITION" : 25, "NORMAL" : 26, "TEXCOORD_0" : 27}, "indices" : 24, "material" : 6, "mode" : 4}]}], "nodes" : [{"mesh" : 0, "name" : "Object_2"}, {"mesh" : 1, "name" : "Object_3"}, {"mesh" : 2, "name" : "Object_4"}, {"mesh" : 3, "name" : "Object_5"}, {"mesh" : 4, "name" : "Object_6"}, {"mesh" : 5, "name" : "Object_7"}, {"mesh" : 6, "name" : "Object_8"}, {"children" : [0, 1, 2, 3, 4, 5, 6], "name" : "Scarlett Johansson Head 3D.obj.cleaner.materialmerger.gles"}, {"children" : [7], "matrix" : [1, 0, 0, 0, 0, 2.220446049250313E-16, -1, 0, 0, 1, 2.220446049250313E-16, 0, 0, 0, 0, 1], "name" : "Sketchfab_model"}], "samplers" : [{"magFilter" : 9729, "minFilter" : 9987, "wrapS" : 10497, "wrapT" : 10497}, {"magFilter" : 9729, "minFilter" : 9987, "wrapS" : 10497, "wrapT" : 10497}, {"magFilter" : 9729, "minFilter" : 9987, "wrapS" : 10497, "wrapT" : 10497}, {"magFilter" : 9729, "minFilter" : 9987, "wrapS" : 10497, "wrapT" : 10497}, {"magFilter" : 9729, "minFilter" : 9987, "wrapS" : 10497, "wrapT" : 10497}, {"magFilter" : 9729, "minFilter" : 9987, "wrapS" : 10497, "wrapT" : 10497}, {"magFilter" : 9729, "minFilter" : 9987, "wrapS" : 10497, "wrapT" : 10497}], "scene" : 0, "scenes" : [{"nodes" : [8]}], "textures" : [{"sampler" : 0, "source" : 0, "name" : ""}, {"sampler" : 1, "source" : 1, "name" : ""}, {"sampler" : 2, "source" : 2, "name" : ""}, {"sampler" : 3, "source" : 3, "name" : ""}, {"sampler" : 4, "source" : 4, "name" : ""}, {"sampler" : 5, "source" : 5, "name" : ""}, {"sampler" : 6, "source" : 6, "name" : ""}]}